# xmcd
#
# Track frame offsets:
#	150
#	18111
#	35235
#	49928
#	66713
#	79006
#	97986
#	111397
#	127075
#	145022
#	161058
#	175139
#
# Disc length: 2560 seconds
#
# Revision: 1
# Processed by: cddbd v1.5.2PL0 Copyright (c) Steve Scherf et al.
# Submitted via: audiograbber 1.83.01
#
DISCID=aa09fe0c
DTITLE=Eli Barsi - Portrait Of A Cowgirl
DYEAR=2016
DGENRE=Country
TTITLE0=Farm Girl
TTITLE1=He´ll Be Back Again
TTITLE2=Hitch Your Wagon To A Star
TTITLE3=Portrait Of A Cowgirl
TTITLE4=Prairi Skies
TTITLE5=A Real Partner
TTITLE6=God Only Knows
TTITLE7=Wild Flowers For Me
TTITLE8=Big Hat No Cattle
TTITLE9=I See You Everywhere
TTITLE10=Country Music Was Made For Saturday Night
TTITLE11=Window Of The West
EXTD=
EXTT0=
EXTT1=
EXTT2=
EXTT3=
EXTT4=
EXTT5=
EXTT6=
EXTT7=
EXTT8=
EXTT9=
EXTT10=
EXTT11=
PLAYORDER=
